<svg xmlns="http://www.w3.org/2000/svg" viewBox="0 0 577.69 103.72"><defs><style>.cls-1{fill:#fff;}</style></defs><title>komporAsset 8</title><g id="Layer_2" data-name="Layer 2"><g id="Layer_1-2" data-name="Layer 1"><path class="cls-1" d="M53.19,4.15,26.82,99h12l-.74,2.38H0L.74,99H12.59L38.82,4.15H27l.59-2.37H65.79l-.6,2.37Zm27.71,0,.74-2.37h29l-.59,2.37H97.64L56.3,39.56,82.23,99h12l-.74,2.38H51.71L52.3,99H65L43,47.56,93.64,4.15Z"/><path class="cls-1" d="M118.9,101.49a29.19,29.19,0,0,1-11.11-6.81,31.18,31.18,0,0,1-7.26-11.56,46.58,46.58,0,0,1-2.59-16.3,65.48,65.48,0,0,1,4.37-22.89,77.85,77.85,0,0,1,12.15-21.56A65.87,65.87,0,0,1,133.05,6.3,46.53,46.53,0,0,1,156.91,0q17.63,0,26.59,10.15t9,28.67a59.67,59.67,0,0,1-5,23.63,74.28,74.28,0,0,1-13.26,20.82,68.12,68.12,0,0,1-19,14.82,47.18,47.18,0,0,1-22.15,5.63A43,43,0,0,1,118.9,101.49ZM172.54,8.08q-5.41-5.42-16.23-5.41a25.45,25.45,0,0,0-9.63,1.92,28.53,28.53,0,0,0-9,6.08,45.09,45.09,0,0,0-7.93,10.67,76.62,76.62,0,0,0-6.3,15.55c-.89,3-1.9,6.37-3,10.23s-2.24,7.8-3.33,11.85-2,8-2.74,11.85A55.64,55.64,0,0,0,113.2,81.2q0,9.18,4.81,14.44t16.08,5.26a23.66,23.66,0,0,0,10.59-2.52,35.15,35.15,0,0,0,9.49-7A49.71,49.71,0,0,0,162,80.75a67.56,67.56,0,0,0,5.7-13.63c1.39-4.64,2.69-9.14,3.93-13.48s2.32-8.42,3.26-12.23,1.68-7.18,2.22-10.15A42.34,42.34,0,0,0,178,24Q178,13.48,172.54,8.08Z"/><path class="cls-1" d="M195.58,99,221.8,4.15H210.25l.59-2.37H238.1l6.67,75,47-75H320l-.6,2.37H306.7L280.48,99h12.74l-.74,2.38H252.92l.59-2.38h12.74L292,5.93l-58.82,95.42h-1.93l-7.7-94.68L198.1,99h12.74l-.59,2.38H182.09l.74-2.38Z"/><path class="cls-1" d="M380.19,3a22.93,22.93,0,0,1,8.52,4.07,19.71,19.71,0,0,1,5.71,7.1,24,24,0,0,1,2.07,10.5,28,28,0,0,1-2.59,11.83,28.45,28.45,0,0,1-7.56,9.84,38,38,0,0,1-12.08,6.74,48.42,48.42,0,0,1-16.15,2.51H343.3L331.3,99H344l-.59,2.38H303.89l.74-2.38h12.44L343.3,4.15H330.7l.6-2.37h38.52A41.44,41.44,0,0,1,380.19,3ZM358,53.19a20.89,20.89,0,0,0,9.26-1.92,23.77,23.77,0,0,0,6.81-5,29,29,0,0,0,4.82-6.81,47.32,47.32,0,0,0,3-7.41,44.69,44.69,0,0,0,1.55-6.82,37.89,37.89,0,0,0,.45-5Q383.9,13,380,8.59T367.75,4.15H357.67l-13.78,49Z"/><path class="cls-1" d="M419.08,101.49A29.19,29.19,0,0,1,408,94.68a31.18,31.18,0,0,1-7.26-11.56,46.58,46.58,0,0,1-2.59-16.3,65.48,65.48,0,0,1,4.37-22.89,77.85,77.85,0,0,1,12.15-21.56A65.87,65.87,0,0,1,433.23,6.3,46.53,46.53,0,0,1,457.09,0q17.63,0,26.59,10.15t9,28.67a59.67,59.67,0,0,1-5,23.63,74.28,74.28,0,0,1-13.26,20.82,68.12,68.12,0,0,1-19,14.82,47.18,47.18,0,0,1-22.15,5.63A43,43,0,0,1,419.08,101.49ZM472.72,8.08q-5.42-5.42-16.22-5.41a25.5,25.5,0,0,0-9.64,1.92,28.53,28.53,0,0,0-9,6.08,45.09,45.09,0,0,0-7.93,10.67,76.62,76.62,0,0,0-6.3,15.55c-.89,3-1.9,6.37-3,10.23s-2.24,7.8-3.33,11.85-2,8-2.74,11.85a55.64,55.64,0,0,0-1.11,10.38q0,9.18,4.81,14.44t16.08,5.26a23.66,23.66,0,0,0,10.59-2.52,35.15,35.15,0,0,0,9.49-7,49.71,49.71,0,0,0,7.85-10.67,67.56,67.56,0,0,0,5.7-13.63c1.39-4.64,2.69-9.14,3.93-13.48s2.32-8.42,3.26-12.23,1.68-7.18,2.22-10.15a42.34,42.34,0,0,0,.82-7.26Q478.13,13.48,472.72,8.08Z"/><path class="cls-1" d="M560.36,97.57c.69.74,1.92,1.11,3.7,1.11a13.46,13.46,0,0,0,3.78-.59,18.62,18.62,0,0,0,3.63-1.49,2.67,2.67,0,0,1,.74-.29.39.39,0,0,1,.45.44,1.18,1.18,0,0,1-.6.89,14.21,14.21,0,0,1-2.59,1.48,37.65,37.65,0,0,1-4.22,1.71,46.07,46.07,0,0,1-5,1.4,24.27,24.27,0,0,1-5.33.6,11.72,11.72,0,0,1-7.71-2.45c-2-1.63-3-4.42-3-8.37a37.11,37.11,0,0,1,1.26-9.41q1.24-4.81,2-8.67a41.71,41.71,0,0,0,.74-5.18c.09-1.48.15-2.86.15-4.15a21.67,21.67,0,0,0-1-7,9.86,9.86,0,0,0-2.74-4.29,9.73,9.73,0,0,0-4.29-2.15,23.75,23.75,0,0,0-5.49-.6h-9.48L511.91,99h12.74l-.59,2.38H484.35l.59-2.38h12.74L523.91,4.3H511.17l.59-2.52h40.15q13.49,0,19.63,5.63a18.27,18.27,0,0,1,6.15,14.07,27.16,27.16,0,0,1-1.55,8.82A24,24,0,0,1,571,38.75a33.09,33.09,0,0,1-9.56,6.89,50,50,0,0,1-14.81,4.29q8.59.75,13,6.15a19.8,19.8,0,0,1,4.44,13,37.27,37.27,0,0,1-.74,7.26c-.49,2.47-1,4.84-1.63,7.11s-1.14,4.37-1.63,6.29a20.75,20.75,0,0,0-.74,5A4.08,4.08,0,0,0,560.36,97.57Zm-20-49.42a21.18,21.18,0,0,0,10.89-2.66,23,23,0,0,0,7.4-6.89,29.52,29.52,0,0,0,4.23-9.41A40.93,40.93,0,0,0,564.21,19q0-7.12-3.41-11T549.54,4.15H538.28l-12.3,44Z"/></g></g></svg>