<svg xmlns="http://www.w3.org/2000/svg" viewBox="0 0 578.87 104.72"><defs><style>.cls-1{fill:#930000;stroke:#930000;stroke-miterlimit:10;}</style></defs><title>komporAsset 7</title><g id="Layer_2" data-name="Layer 2"><g id="Layer_1-2" data-name="Layer 1"><path class="cls-1" d="M53.87,4.65,27.5,99.47h12l-.74,2.38H.68l.74-2.38H13.27L39.5,4.65H27.65l.59-2.37H66.47l-.6,2.37Zm27.71,0,.74-2.37h29l-.59,2.37H98.32L57,40.06,82.91,99.47h12l-.74,2.38H52.39L53,99.47H65.72L43.65,48.06,94.32,4.65Z"/><path class="cls-1" d="M119.58,102a29.19,29.19,0,0,1-11.11-6.81,31.18,31.18,0,0,1-7.26-11.56,46.58,46.58,0,0,1-2.59-16.3A65.48,65.48,0,0,1,103,44.43a77.85,77.85,0,0,1,12.15-21.56A65.87,65.87,0,0,1,133.73,6.8,46.53,46.53,0,0,1,157.59.5q17.63,0,26.59,10.15t9,28.67a59.67,59.67,0,0,1-5,23.63,74.28,74.28,0,0,1-13.26,20.82,68.12,68.12,0,0,1-19,14.82,47.18,47.18,0,0,1-22.15,5.63A42.94,42.94,0,0,1,119.58,102ZM173.22,8.58Q167.81,3.16,157,3.17a25.45,25.45,0,0,0-9.63,1.92,28.53,28.53,0,0,0-9,6.08,45.09,45.09,0,0,0-7.93,10.67,76.62,76.62,0,0,0-6.3,15.55c-.89,3-1.9,6.37-3,10.23s-2.24,7.8-3.33,11.85-2,8-2.74,11.85a55.64,55.64,0,0,0-1.11,10.38q0,9.18,4.81,14.44t16.08,5.26a23.66,23.66,0,0,0,10.59-2.52,35.15,35.15,0,0,0,9.49-7,49.71,49.71,0,0,0,7.85-10.67,67.56,67.56,0,0,0,5.7-13.63c1.39-4.64,2.69-9.14,3.93-13.48s2.32-8.42,3.26-12.23,1.68-7.18,2.22-10.15a42.34,42.34,0,0,0,.82-7.26Q178.63,14,173.22,8.58Z"/><path class="cls-1" d="M196.26,99.47,222.48,4.65H210.93l.59-2.37h27.26l6.67,75,47-75h28.3l-.6,2.37H307.38L281.16,99.47H293.9l-.74,2.38H253.6l.59-2.38h12.74l25.78-93-58.82,95.42H232l-7.7-94.68-25.48,92.3h12.74l-.59,2.38H182.77l.74-2.38Z"/><path class="cls-1" d="M380.87,3.54a22.93,22.93,0,0,1,8.52,4.07,19.58,19.58,0,0,1,5.7,7.1,23.88,23.88,0,0,1,2.08,10.5A28,28,0,0,1,394.58,37,28.45,28.45,0,0,1,387,46.88a38,38,0,0,1-12.08,6.74,48.42,48.42,0,0,1-16.15,2.51H344L332,99.47h12.74l-.59,2.38H304.57l.74-2.38h12.44L344,4.65h-12.6l.6-2.37H370.5A41.44,41.44,0,0,1,380.87,3.54ZM358.65,53.69a20.89,20.89,0,0,0,9.26-1.92,23.77,23.77,0,0,0,6.81-5A29,29,0,0,0,379.54,40a47.32,47.32,0,0,0,3-7.41,44.69,44.69,0,0,0,1.55-6.82,37.89,37.89,0,0,0,.45-5q0-7.26-3.86-11.71T368.43,4.65H358.35l-13.78,49Z"/><path class="cls-1" d="M419.76,102a29.19,29.19,0,0,1-11.11-6.81,31.18,31.18,0,0,1-7.26-11.56,46.58,46.58,0,0,1-2.59-16.3,65.48,65.48,0,0,1,4.37-22.89,77.85,77.85,0,0,1,12.15-21.56A65.87,65.87,0,0,1,433.91,6.8,46.53,46.53,0,0,1,457.77.5q17.63,0,26.59,10.15t9,28.67a59.67,59.67,0,0,1-5,23.63A74.28,74.28,0,0,1,475.1,83.77a68.12,68.12,0,0,1-19,14.82,47.18,47.18,0,0,1-22.15,5.63A43,43,0,0,1,419.76,102ZM473.4,8.58Q468,3.16,457.18,3.17a25.5,25.5,0,0,0-9.64,1.92,28.53,28.53,0,0,0-9,6.08,45.09,45.09,0,0,0-7.93,10.67,76.62,76.62,0,0,0-6.3,15.55c-.89,3-1.9,6.37-3,10.23s-2.24,7.8-3.33,11.85-2,8-2.74,11.85a55.64,55.64,0,0,0-1.11,10.38q0,9.18,4.81,14.44T435,101.4a23.66,23.66,0,0,0,10.59-2.52,35.15,35.15,0,0,0,9.49-7,49.71,49.71,0,0,0,7.85-10.67,67.56,67.56,0,0,0,5.7-13.63c1.39-4.64,2.69-9.14,3.93-13.48s2.32-8.42,3.26-12.23,1.68-7.18,2.22-10.15a42.34,42.34,0,0,0,.82-7.26Q478.81,14,473.4,8.58Z"/><path class="cls-1" d="M561,98.07c.69.74,1.92,1.11,3.7,1.11a13.46,13.46,0,0,0,3.78-.59,18.62,18.62,0,0,0,3.63-1.49,2.67,2.67,0,0,1,.74-.29.39.39,0,0,1,.45.44,1.18,1.18,0,0,1-.6.89,14.21,14.21,0,0,1-2.59,1.48,37.65,37.65,0,0,1-4.22,1.71,46.07,46.07,0,0,1-5,1.4,24.29,24.29,0,0,1-5.34.6,11.71,11.71,0,0,1-7.7-2.45c-2-1.63-3-4.42-3-8.37a37.11,37.11,0,0,1,1.26-9.41q1.25-4.81,2-8.67a41.71,41.71,0,0,0,.74-5.18c.09-1.48.15-2.86.15-4.15a21.67,21.67,0,0,0-1-7,9.86,9.86,0,0,0-2.74-4.29A9.73,9.73,0,0,0,541,51.62a23.75,23.75,0,0,0-5.49-.6h-9.48L512.59,99.47h12.74l-.59,2.38H485l.59-2.38h12.74L524.59,4.8H511.85l.59-2.52h40.15q13.49,0,19.63,5.63A18.27,18.27,0,0,1,578.37,22a27.16,27.16,0,0,1-1.55,8.82,24,24,0,0,1-5.19,8.45,33.09,33.09,0,0,1-9.56,6.89,50,50,0,0,1-14.81,4.29q8.6.75,13,6.15a19.8,19.8,0,0,1,4.44,13,37.27,37.27,0,0,1-.74,7.26c-.49,2.47-1,4.84-1.63,7.11s-1.14,4.37-1.63,6.29a20.75,20.75,0,0,0-.74,5A4,4,0,0,0,561,98.07ZM541,48.65A21.18,21.18,0,0,0,551.93,46a23,23,0,0,0,7.4-6.89,29.52,29.52,0,0,0,4.23-9.41,40.93,40.93,0,0,0,1.33-10.22q0-7.12-3.41-11T550.22,4.65H539l-12.3,44Z"/></g></g></svg>