<svg xmlns="http://www.w3.org/2000/svg" viewBox="0 0 192 192"><defs><style>.cls-1{fill:#930000;}.cls-2{fill:#fff;stroke:#fff;stroke-miterlimit:10;stroke-width:3.4px;}</style></defs><title>komporAsset 4</title><g id="Layer_2" data-name="Layer 2"><g id="Layer_1-2" data-name="Layer 1"><rect class="cls-1" width="192" height="192" rx="31.5" ry="31.5"/><path class="cls-2" d="M61.87,99.1q1-4,3.34-15.9l.4-1.38,6.2-28.94.49-3.59a5.67,5.67,0,0,0-.65-2.2,13.29,13.29,0,0,0-6-1.71,19.88,19.88,0,0,1-2.93-.33c-2.12-.27-3.37-.43-3.75-.49a4.41,4.41,0,0,1-3-.89,8.18,8.18,0,0,0,.33-2l6.28-.16,15.08.89L87.05,42l2.69.08a23.55,23.55,0,0,0,3.06-.29,23.9,23.9,0,0,1,2.57-.28,15.59,15.59,0,0,1,3.42.57,5.77,5.77,0,0,1-1.55,3.34l-2.69.24a33.55,33.55,0,0,1-4,.33,7.63,7.63,0,0,0-3.63.82,3,3,0,0,0-.82.81Q84.93,49.46,83,57L79.8,70Q76,84.1,74.42,92.74c-.33,2-.63,3.45-.9,4.48L87,86q1.55-1.38,3.09-2.93a69.56,69.56,0,0,0,6.77-5.79q7.82-7.66,11.24-10.51l12.71-11.91a31.32,31.32,0,0,0,5.3-5.87q-1-.57-1.62-.81c-.81-.43-1.49-.79-2-1.06A16.13,16.13,0,0,0,116,45.38c-1-.11-2-.27-3-.49l0-.73a19.4,19.4,0,0,1,.17-2,10.71,10.71,0,0,1,2.77-.57,37.68,37.68,0,0,1,6.81.77,59.29,59.29,0,0,0,10.8.78q6.51,0,10.67-.41c1.15-.11,1.91-.16,2.29-.16a16.83,16.83,0,0,1,2,.16l.08,2.61q-7.5,2.19-10.18,3.34-.66.33-8.81,5.13-13.44,11.42-28,24.21L88.78,89.23l-.9,1a17.57,17.57,0,0,0,1.22,2.12l9.28,12.15,9.6,13.2c.43.71,1.68,2.58,3.74,5.63a32.26,32.26,0,0,0,4,5.62c.54.65,1.35,1.77,2.44,3.34a93,93,0,0,0,6,7.91,9.64,9.64,0,0,0,3.52,2.53,45.81,45.81,0,0,0,10.23,2.85,20.8,20.8,0,0,1-.57,3.5H133a132.49,132.49,0,0,0-18.1-1.3q-7.42-10.51-11.09-16.47l-1.3-1.54-3.67-5.38-9.13-13.21a90,90,0,0,0-8.89-11.9c-.65-.76-1.25-1.52-1.79-2.28a29.61,29.61,0,0,1-3,2.12c-1,.59-2.18,1.38-3.54,2.36l-6.68,30.81a43.2,43.2,0,0,0-1.06,8.4,12.92,12.92,0,0,0,.16,1.55,14.56,14.56,0,0,0,4.89,2.69,43.11,43.11,0,0,0,5.14.81,38.26,38.26,0,0,1,4.4.65,1.6,1.6,0,0,1,.9,1.31,5.07,5.07,0,0,1-.09.9,12.76,12.76,0,0,1-4.32.65,80.32,80.32,0,0,1-9.7-.49l-4.72.16-3.18-.16-8.81.16a22.3,22.3,0,0,0-2.36.41l-9.21.08v-2.85a15.86,15.86,0,0,1,3.42-.9q6.93-1.06,9.46-3.38t3.5-7.62a46.55,46.55,0,0,1,1.39-4.57L59.5,112l2-10.44C61.65,100.94,61.76,100.13,61.87,99.1Z"/></g></g></svg>