<svg xmlns="http://www.w3.org/2000/svg" viewBox="0 0 584.22 101.43"><defs><style>.cls-1{fill:#930000;stroke:#930000;stroke-miterlimit:10;stroke-width:3px;}</style></defs><title>komporAsset 6</title><g id="Layer_2" data-name="Layer 2"><g id="Layer_1-2" data-name="Layer 1"><path class="cls-1" d="M22.69,54q.87-3.53,2.95-14L26,38.72l5.46-25.51.43-3.16a5,5,0,0,0-.57-1.94A11.77,11.77,0,0,0,26,6.6a17.11,17.11,0,0,1-2.59-.29l-3.3-.43a3.81,3.81,0,0,1-2.66-.79,7.29,7.29,0,0,0,.29-1.79l5.53-.15,13.29.79,8.34-.28,2.37.07A21.91,21.91,0,0,0,50,3.48a21.81,21.81,0,0,1,2.26-.26,13.59,13.59,0,0,1,3,.51,5.09,5.09,0,0,1-1.36,2.94l-2.37.22A33.42,33.42,0,0,1,48,7.18a6.74,6.74,0,0,0-3.2.71,2.72,2.72,0,0,0-.72.72c-.67,1.06-1.58,3.81-2.73,8.27L38.5,28.3q-3.37,12.44-4.74,20c-.29,1.73-.55,3-.79,4l11.85-9.92c.91-.81,1.82-1.67,2.73-2.59a60.68,60.68,0,0,0,6-5.1q6.9-6.75,9.91-9.27L74.63,14.94A28,28,0,0,0,79.3,9.76c-.62-.33-1.1-.57-1.43-.72l-1.79-.93A14.17,14.17,0,0,0,70.43,6.6a26.5,26.5,0,0,1-2.65-.43l0-.65a16.32,16.32,0,0,1,.15-1.79,9.28,9.28,0,0,1,2.44-.51,32.4,32.4,0,0,1,6,.69,53.16,53.16,0,0,0,9.52.68q5.75,0,9.41-.36c1-.1,1.68-.14,2-.14A14.16,14.16,0,0,1,99,4.23l.07,2.3a93,93,0,0,0-9,3q-.57.29-7.76,4.52Q70.48,24.07,57.69,35.34L46.42,45.25l-.79.87A15,15,0,0,0,46.7,48l8.18,10.71,8.46,11.64q.57.93,3.3,5a28,28,0,0,0,3.51,4.95c.48.58,1.2,1.56,2.15,3a83,83,0,0,0,5.31,7,8.51,8.51,0,0,0,3.1,2.23,40.13,40.13,0,0,0,9,2.51,19.58,19.58,0,0,1-.5,3.09H85.42a116.87,116.87,0,0,0-16-1.15q-6.54-9.27-9.78-14.51L58.53,81,55.3,76.22l-8-11.64a79,79,0,0,0-7.83-10.49c-.58-.67-1.1-1.34-1.58-2A24.75,24.75,0,0,1,35.15,54c-.88.53-1.92,1.22-3.11,2.08l-5.9,27.16a38.44,38.44,0,0,0-.93,7.4A13,13,0,0,0,25.35,92a12.82,12.82,0,0,0,4.31,2.37,39.31,39.31,0,0,0,4.53.71,35.19,35.19,0,0,1,3.88.58,1.4,1.4,0,0,1,.79,1.15,4.62,4.62,0,0,1-.07.79,11.32,11.32,0,0,1-3.81.57,69.13,69.13,0,0,1-8.55-.43l-4.17.15-2.8-.15-7.76.15a17.18,17.18,0,0,0-2.08.36l-8.12.07V95.76a13.9,13.9,0,0,1,3-.79q6.11-.93,8.33-3t3.09-6.72a38.47,38.47,0,0,1,1.22-4l3.45-16,1.8-9.2C22.5,55.58,22.6,54.86,22.69,54Z"/><path class="cls-1" d="M96.84,55.39a42.72,42.72,0,0,1,3-15.2,107.11,107.11,0,0,1,7.76-16.06q1.58-2.86,10.77-12.07,3-3,12.79-7.54a27.26,27.26,0,0,1,10.28-2.3c1.1-.1,2.48-.24,4.13-.43a38.16,38.16,0,0,1,4.27-.29q14.88,0,26,14.08,8.26,10.43,8.26,28.6a50.15,50.15,0,0,1-2.62,14.65,56.22,56.22,0,0,1-7.72,15.67A75.34,75.34,0,0,1,161.9,87.68a44,44,0,0,1-14.19,8.62A43.52,43.52,0,0,1,132.84,99a31.3,31.3,0,0,1-17-4.82,37.92,37.92,0,0,1-12.39-12.64Q96.84,70.54,96.84,55.39ZM118,89.8a18.76,18.76,0,0,0,4.16,3.13,68,68,0,0,0,7.62,2.76,14,14,0,0,0,4.31.29l3-.14Q145,94,147.64,92.31a32.26,32.26,0,0,0,8.48-7.68,66.85,66.85,0,0,0,9-15.23,118,118,0,0,0,5.21-14.3,57.28,57.28,0,0,0,2.3-15.23A50.35,50.35,0,0,0,171.1,27.4a45.54,45.54,0,0,0-2.56-8,33.15,33.15,0,0,0-5.64-8,23.07,23.07,0,0,0-7.07-4.89,20.91,20.91,0,0,0-8.62-1.8,29.6,29.6,0,0,0-14.34,3.74,36.61,36.61,0,0,0-11.71,10.09q-4.84,6.36-9.23,18.86a69.89,69.89,0,0,0-4.38,22.92,52.33,52.33,0,0,0,3.37,19.47Q112.64,84.13,118,89.8Z"/><path class="cls-1" d="M180.76,97.2v-.57a3.33,3.33,0,0,1,.71-2.3,24.7,24.7,0,0,0,7.23-1.58,6.84,6.84,0,0,0,2.84-1.62,23.51,23.51,0,0,0,3.55-5.64A122.41,122.41,0,0,0,201,69.9l6.35-18.54c.89-3,1.5-5,1.83-6l8.68-24.07q1.77-5.53,3.18-9.12a9.66,9.66,0,0,0,.79-3.05,3,3,0,0,0-1.73-2.94q-1.73-.84-7.26-1.42-6.47.23-6.89.22H205l-.72-2.95c1.72-.09,2.74-.14,3.07-.14,1.38.1,2.31.14,2.78.14l6.14-.21q5.85,0,9.84.36c1,.09,2.52.17,4.42.21a2,2,0,0,1,.5.79A34.16,34.16,0,0,1,232.5,9.4l2.12,11.79q.7,2.58,1.9,9.77,2.32,13.57,3.18,20.62,2.18,10.28,2.82,15.37.07.64,1.62,9.56.65,3.87,1,5,3.44-5,6-9.16t8.67-15.56l15.58-26.58,3.22-5.53q5.93-11,13.32-22.56c3.23.14,6.35.21,9.34.21l1.44,0c.58,0,1.26,0,2,0l8.4-.22q.51.08,1.38.15l-.22,2.3a36,36,0,0,1-5.32,1.29,22.9,22.9,0,0,0-6.59,2,4.72,4.72,0,0,0-2.12,2.7Q298,25,294.22,45.69l-6.66,37.36-.07.57c-.1.72-.22,2.13-.37,4.24a14.22,14.22,0,0,1-.22,1.94l-.14.72a2.65,2.65,0,0,0,.22.93A11.36,11.36,0,0,0,289.49,93,48.79,48.79,0,0,0,297,94.33c1.77.24,3.09.45,3.95.64v.65a4,4,0,0,1-.37,1.44c-2.13.09-3.67.14-4.62.14q-3.57,0-8.4-.47a87.8,87.8,0,0,0-9.08-.39c-3.22,0-7,.09-11.38.29-1.54,0-2.53.07-3,.07-.69,0-1.56,0-2.6-.15a3.7,3.7,0,0,1-.3-1.15,4.45,4.45,0,0,1,.5-1.65c1.25-.09,2.16-.14,2.74-.14,4.36-.19,7.36-.72,9-1.57a4.39,4.39,0,0,0,1.65-1.79q.94-1.78,2.16-9.5l3.32-17,3.81-19.54q1-5.46,1.69-10.78c.76-3.49,1.37-6.79,1.83-9.88s.85-5.4,1.17-6.93c.38-2.16.62-3.83.73-5q-12.31,21.36-15.44,26-.74,1.16-9.62,16.54l-3.13,6.11a36,36,0,0,0-2.48,3.74q-12.45,21.8-17.77,32c-.83,1.53-1.56,2.83-2.19,3.88h-2.68q0-3.6-.28-6.69-.63-7.76-1.34-12.65-.15-.87-1.91-10.29l-4.16-23.22a53.71,53.71,0,0,1-.78-5.36,32.88,32.88,0,0,0-.77-4.71q-.92-4-2.4-12.58l-1.77-9.35a15.23,15.23,0,0,0-.91,2.59l-7.48,21.77-4.59,13.93q-2.06,5.25-5,15.67t-5.4,17.17a9.81,9.81,0,0,0-.64,3.09,2.93,2.93,0,0,0,.93,2.19q.93.9,5,2.26c1.15.19,2.08.36,2.8.5a39.67,39.67,0,0,1,5.52.65,1.58,1.58,0,0,1,.86.72,7.46,7.46,0,0,1-.36,2.37l-5-.21-3.21-.15c-.28,0-.69,0-1.21.07a115.51,115.51,0,0,0-13-.72Z"/><path class="cls-1" d="M307.43,95a3.41,3.41,0,0,1,1.38-.28A44.29,44.29,0,0,0,319,93a5.87,5.87,0,0,0,3-2.09,38.69,38.69,0,0,0,1.83-6.44q.42-3.15,4-19c.34-2.25.81-5.1,1.43-8.54q.29-1.36,1.43-9,.15-1.22,1.65-8.9l1.64-9.26.29-2.8q3.15-14.79,3.15-18.74a3.09,3.09,0,0,0-.43-1.26,7.93,7.93,0,0,0-3.66-1l-1.87-.22-3.59-.07-1.65.14L325,5.88a10.73,10.73,0,0,1-2.22-.36,17,17,0,0,1,.86-3.16c.81,0,3.64.15,8.49.43s9,.43,12.35.43,7.4-.19,11.89-.57a36.72,36.72,0,0,1,3.72-.29A32.35,32.35,0,0,1,372.86,4.8c.29.1.69.27,1.22.5l5,2.87a36,36,0,0,1,5.37,4.88,25.89,25.89,0,0,1,4,7,22.1,22.1,0,0,1,1.61,8.11,18.11,18.11,0,0,1-.5,4.59L387.82,39a31.44,31.44,0,0,1-3.09,5.52,17.33,17.33,0,0,1-3.3,3.45c-.62.52-1.2,1-1.73,1.58a44.25,44.25,0,0,1-9.55,5.59,22.26,22.26,0,0,1-6.47,1.73q-7,.85-7.9.86a32.19,32.19,0,0,1-3.81-.43,48.13,48.13,0,0,1-6.75-1.3V55.6a9.33,9.33,0,0,1,.36-1.8c1.34.15,3.68.29,7,.44.67-.1,1.79-.2,3.37-.29a24.87,24.87,0,0,0,7.55-2.37,35.89,35.89,0,0,0,8.62-6.46,25.94,25.94,0,0,0,5.46-8.82,27.53,27.53,0,0,0,1.44-9.54A19,19,0,0,0,376.84,18a24.9,24.9,0,0,0-5-6.92,19.54,19.54,0,0,0-6.83-4Q361,5.6,353.6,5.6a21.93,21.93,0,0,0-5.22.64,31.66,31.66,0,0,0-1.65,6.53c-.2,1.25-.41,2.49-.65,3.74l-6.54,36.25-3.88,18.31q-.65,4.67-1,6.57c-.26,1.27-.52,2.71-.76,4.34a28.22,28.22,0,0,1-.79,3.88,22.36,22.36,0,0,0-.57,4.31,2.57,2.57,0,0,0,1.17,2c.77.6,2.48,1,5.11,1.26a16.7,16.7,0,0,1,5.5,1.14c0,.77-.07,1.35-.07,1.73a4.15,4.15,0,0,1-.21,1.51q-1.87,0-8.55-.65L321.36,97a118.3,118.3,0,0,0-13.93.87Z"/><path class="cls-1" d="M395.73,55.39a42.92,42.92,0,0,1,2.94-15.2,107.11,107.11,0,0,1,7.76-16.06q1.57-2.86,10.78-12.07,3-3,12.79-7.54a27.2,27.2,0,0,1,10.27-2.3c1.1-.1,2.48-.24,4.13-.43a38.32,38.32,0,0,1,4.28-.29q14.86,0,26,14.08Q482.94,26,483,44.18a50.49,50.49,0,0,1-2.62,14.65A56.25,56.25,0,0,1,472.6,74.5a75.34,75.34,0,0,1-11.82,13.18,44,44,0,0,1-14.19,8.62A43.52,43.52,0,0,1,431.72,99a31.24,31.24,0,0,1-17-4.82,37.92,37.92,0,0,1-12.39-12.64Q395.73,70.54,395.73,55.39ZM416.92,89.8a18.56,18.56,0,0,0,4.17,3.13,66.79,66.79,0,0,0,7.61,2.76A14,14,0,0,0,433,96l2.95-.14q7.91-1.87,10.56-3.53A32.11,32.11,0,0,0,455,84.63a66.52,66.52,0,0,0,9-15.23,119.76,119.76,0,0,0,5.21-14.3,57.24,57.24,0,0,0,2.29-15.23A50.35,50.35,0,0,0,470,27.4a44.92,44.92,0,0,0-2.55-8,33.71,33.71,0,0,0-5.64-8,23.24,23.24,0,0,0-7.08-4.89,20.87,20.87,0,0,0-8.62-1.8,29.56,29.56,0,0,0-14.33,3.74,36.5,36.5,0,0,0-11.71,10.09q-4.86,6.36-9.24,18.86a69.89,69.89,0,0,0-4.38,22.92,52.33,52.33,0,0,0,3.38,19.47Q411.54,84.13,416.92,89.8Z"/><path class="cls-1" d="M488.91,95.19a16.82,16.82,0,0,0,3.28-.58,30.24,30.24,0,0,0,4.41-.86,13.06,13.06,0,0,0,6.2-2,2.36,2.36,0,0,0,1-.93q.18-.44,1.89-17.39l2.56-27.52q2.21-18.45,2.35-23.92a28.83,28.83,0,0,1,.64-4.52l.43-6.4a2.7,2.7,0,0,0-.86-1.94,7.28,7.28,0,0,0-2.88-1.66q-8-.57-9.57-.86a3.49,3.49,0,0,1-.5-1.36A2.85,2.85,0,0,1,498.25,4a5.18,5.18,0,0,1,1.64-.28q4.71,0,9.78.14c3.38.1,5.43.14,6.14.14l21.49-.64,2.92-.07a32.05,32.05,0,0,1,10.53,1.11,19.43,19.43,0,0,1,7.68,4.49A17.07,17.07,0,0,1,563.07,16a21.88,21.88,0,0,1,1.28,6.44,21,21,0,0,1-5.21,13.47Q553.93,42.25,542,48.51q1.85,3.15,17.66,27.85c1,1.59,2.58,4.12,4.71,7.62s4.13,5.93,6,7.29a14.61,14.61,0,0,0,7.11,2.55q2,.3,5.1,1l-.29,3.08c-1.87,0-4.28-.1-7.25-.29q-8-.57-12.15-.58l-10.41.15-4.53.29-.72-.08a2.57,2.57,0,0,0-1.29.29,2.83,2.83,0,0,1-1-2.23,3.45,3.45,0,0,1,1.73-.93,38.46,38.46,0,0,1,7.61-.5,6.58,6.58,0,0,0,4.24-1.44q-.85-2.73-5.48-9-.78-1.14-7.47-11.34L532,51.53a51.92,51.92,0,0,1-10.6,1c-.66,0-1.9,0-3.7-.14L515.9,71.7l-1.35,13.14-.22,3c-.14,1.15-.21,1.84-.21,2.08a7.87,7.87,0,0,0,.29,1.65,25.38,25.38,0,0,0,6.65,2c2.47.41,4.8.9,7,1.47a5.5,5.5,0,0,1,.14,1.08,9.47,9.47,0,0,1-.07,1.08c-1.43.05-2.45.07-3.07.07s-1.88,0-3.65-.14q-3.7-.28-7.43-.29-8.07,0-13.11.32c-3.36.22-6.32.33-8.9.33-.76,0-1.52,0-2.28.07a7,7,0,0,1-1.15-.15,10.7,10.7,0,0,0,.07-1.07A2.32,2.32,0,0,1,488.91,95.19ZM522.8,7.82l-.42,1.3A28.74,28.74,0,0,0,521,18.48a9,9,0,0,1-.07,1.15l-1.35,11.73Q518.53,44,518.25,47l.07,1.29a19.09,19.09,0,0,0,5.83.65,46.67,46.67,0,0,0,7-.94,27,27,0,0,0,7.32-2.73,24,24,0,0,0,5.76-4.18c2.6-3,4-4.7,4.33-5.18a32.78,32.78,0,0,0,3.31-7.34,23.62,23.62,0,0,0,1.24-7,14.09,14.09,0,0,0-4.65-11q-4.67-4.21-15.24-4.21A32.62,32.62,0,0,0,522.8,7.82Z"/></g></g></svg>